<svg version="1" xmlns="http://www.w3.org/2000/svg" width="853.333" height="853.333" viewBox="0 0 640.000000 640.000000"><path d="M308.8 3.4c-1.6.8-2.8 1.3-2.8 1 0-.6-1.8.9-7.3 6.1-4.5 4.3-8.1 9.8-7 10.9.3.3.1.6-.6.6s-1.1.6-.8 1.3c.3.8.1 2-.3 2.8-.5.8-.4 1.9.2 2.6.7.9.7 1.3-.1 1.3-1.3 0-1 2.2.4 3.2.6.5.6.8-.1.8-.9 0-.9 1.1-.2 4 .6 2.2 1.4 4 1.9 4s.9.9.9 2.1c0 1.1 1.4 3.4 3 5.1 1.7 1.6 3 3.4 3 3.9s.7.9 1.5.9c.9 0 1.8.7 2.1 1.5.4.8 1.1 1.2 1.6.9 1.2-.8.7 5.8-.5 6.7-.5.3-.9 1.2-1 2-.2.8-1 2.5-2 3.9-.9 1.3-1.7 3.2-1.7 4.2s-.4 1.8-1 1.8c-.5 0-1 .9-1 1.9 0 1.1-.5 2.3-1 2.6-.6.4-.8 1.1-.5 1.6.4.5.1.9-.4.9-.6 0-1.1.8-1.1 1.9 0 1-.7 2.4-1.5 3.1-.8.7-1.5 1.9-1.5 2.6 0 1.3-1.8 5.2-3 6.4-.3.3-.5.9-.6 1.5-.1 1.7-3.5 8.9-5 10.6-.7.8-1.5 2.4-1.7 3.6-.1 1.2-.9 2.8-1.6 3.7-.7.9-1 1.6-.6 1.6s0 1.1-.9 2.5-1.4 2.5-1.1 2.5c.4 0-.3 1.3-1.4 2.9-1.1 1.5-1.8 3.1-1.4 3.5.3.3.1.6-.6.6s-1.1.6-.8 1.4c.3.8-.1 1.7-.9 2-.8.3-1.3.9-1.3 1.3.1.4-.4 2.4-1.2 4.3-.7 1.9-1.2 3.8-1.1 4.2.1.5-.3.8-.9.8-.8 0-2.9 4.2-3.2 6.7 0 .4-.7 1.4-1.4 2.2-1.1 1.1-1.9 1.1-4.3.1-1.7-.7-3-1.8-3-2.5s-.8-1.2-1.7-1.1c-1 0-1.7-.5-1.5-1.2.1-.8-.2-1.1-.7-.7-.6.3-1.9-.3-3.1-1.5-1.1-1.1-2.3-2-2.6-2-.3 0-1.2-.7-2.1-1.5-.8-.8-1.9-1.3-2.4-1-.5.4-.9-.1-.9-.9 0-.9-.7-1.6-1.5-1.6-.9 0-1.8-.7-2.1-1.5-.4-.8-1.5-1.5-2.6-1.5-1 0-1.6-.5-1.3-1 .3-.6.1-1-.5-1s-2-.9-3.2-2c-1.2-1-2.5-1.7-2.9-1.4-.4.2-1.3-.5-1.9-1.6-.6-1.1-1.4-1.9-1.8-1.9-2 .3-3.3-.2-2.7-1.1.3-.6.1-1-.5-1s-1.9-.7-2.7-1.6c-1.5-1.4-1.5-1.9 0-5 .9-1.9 2.2-3.4 2.8-3.4.6 0 .9-1.2.8-2.8-.2-1.5 0-3.2.3-3.7 1.6-2.6-.2-17.1-2.3-18.5-.4-.3-.9-1.2-1.1-2-.2-.8-.8-2-1.4-2.6-.6-.7-2.2-2.6-3.7-4.4-1.5-1.7-3.1-2.8-3.7-2.5-.5.3-1-.1-1-.9 0-1.6-.3-1.7-4-2-1.2 0-2.4-.6-2.8-1.2-.4-.5-1.7-1-2.9-1.1-1.3 0-2.5-.2-2.8-.3-1.4-.7-3.2-.5-4.9.3-1.3.7-1.6.6-1.1-.3.6-.9.2-.9-1.4-.1-1.1.7-2.1.9-2.1.5s-.8 0-1.8.9c-1.5 1.3-2.1 1.4-3.2.4-.7-.6-1-.7-.7-.1.4.6-.6 1.7-2.1 2.5s-3.1 2-3.5 2.6c-.4.7-1.5 1.3-2.4 1.3-.9 0-1.4.3-1 .6.3.3-.5 1.7-1.9 3.1-2.2 2.2-2.6 3-2.3 4.9 0 .4-.3 1-.8 1.3-2 1.5-2.9 5.1-2.7 11.1.2 7.2.7 9.9 2.4 13 .6 1.1.8 2.6.4 3.3-.4.6-.4.9 0 .6.8-.8 5.6 3.7 5.6 5.1 0 .6.4 1 .9 1s2.3 1.1 3.9 2.5c1.6 1.3 3.2 2.2 3.6 1.8.3-.3.6-.1.6.5s.7.9 1.5.6c.8-.4 2.1-.1 2.9.5 1.5 1.3 11.8 1.7 13.5.6 1.8-1 5.2-1.5 4.6-.5-.3.5-.1 1.1.5 1.5.6.4.8 1 .5 1.5-.3.5-.1 1.1.5 1.5.5.3 1 2.4 1 4.6 0 2.1.4 3.9.8 3.9.5 0 .9.6 1 1.2.4 3 1 6.3 1.2 6.5.3.3.4.6 1.4 4.8.4 1.6 1 3.7 1.3 4.5.4.8.7 1.8.8 2.2.2.5.4.9.5 1 .1.2.3 1.4.4 2.8.2 1.4.7 3.6 1.1 5 1.1 3.2 1.6 5 1.8 7.5.1 1.1.5 2.3.9 2.6.5.3.9 1.7 1 3.2.1 1.5.5 2.7.8 2.7.3 0 .6 1.4.7 3.2.1 1.7.8 3.5 1.5 4 .7.4 1 .8.7.8-.4 0-.3 1.7.3 3.7.5 2.1 1 4.4 1 5 .1.7.5 1.3.9 1.3s.6 1.1.4 2.5c-.1 1.4.1 2.5.5 2.5s.7.6.7 1.2c0 .7 1 4.9 2.2 9.3 1.3 4.4 2.3 9 2.3 10.2 0 1.3.4 2.3.8 2.3.5 0 .7.8.5 1.7-.1 1 .1 2.5.5 3.3.5.8 1 2.9 1.3 4.7.3 1.7.8 3.7 1.2 4.3.4.6.9 2.6 1.2 4.3.2 1.8.9 3.6 1.4 4.1 3.4 3.6-1.4 7.6-9.6 8-2.6.1-2.9-.3-3.1-2.9-.1-1.7-.5-4.1-.8-5.5-.3-1.4-.8-4.5-1.2-7-.4-2.5-1.1-4.8-1.6-5.1-.5-.3-1-1.6-1.1-2.7-.1-1.2-.5-2.2-1-2.2s-.7-.6-.4-1.4c.3-.8-.1-1.7-.9-2-.9-.3-1.2-1-.9-1.6.3-.5.1-1-.5-1s-.9-.4-.6-.8c.3-.5-.6-2.1-2-3.7-1.3-1.5-2.4-3.2-2.4-3.6 0-.4-.6-1.4-1.3-2.1-.7-.7-2.3-2.8-3.6-4.6-1.2-1.8-2.7-3-3.2-2.6-.5.3-.8.1-.7-.3.3-1-8.3-9.6-11.9-12-1.3-.9-2-1.9-1.7-2.4.3-.5.2-.9-.3-.8-2.2.4-4.4-.2-3.8-1.1.3-.5-.6-1.2-2-1.6-1.4-.3-2.5-1.3-2.5-2.1 0-.9-.6-1.3-1.5-.9-.9.3-2.4-.3-3.5-1.4-1.1-1.1-2.3-1.9-2.8-1.9-1.9.3-3.3-.2-2.7-1.1.3-.6.3-1-.2-1.1-3-.2-5.8-1.1-7-2-.7-.6-1.3-.9-1.3-.5s-1.4-.1-3.2-1c-1.7-.9-5.5-1.8-8.4-2-2.9-.2-6.3-.8-7.6-1.2-3.4-1.2-16.3-.6-23.8 1.2-3.6.8-7.8 1.8-9.5 2.2-1.6.4-3.4 1-4 1.4-.5.5-2.9 1.3-5.2 1.9-2.4.7-4.3 1.6-4.3 2.2 0 .6-.4.8-.9.4-.5-.3-1.5.1-2.3.8-.7.8-2.6 1.7-4.1 2.1-1.5.3-2.5 1.1-2.2 1.6.3.6-.5 1-2 1-1.4 0-2.8.7-3.1 1.5-.4.8-.9 1.3-1.4 1-.4-.2-2 .9-3.6 2.5s-3.4 3-4 3c-.7 0-1.4.7-1.8 1.5-.3.8-1 1.5-1.6 1.5-1.2 0-5.4 4-4.3 4 .5 0 0 .5-1 1.1-.9.6-1.5 1.4-1.2 1.9.3.5-.4 1.1-1.5 1.5-1.1.3-1.9 1-1.7 1.5.2.9-2 4.5-4.6 7.2-.9 1-1.5 1.8-1.2 1.8.6 0-4 8.7-5.7 10.7-.5.7-.7 1.7-.3 2.3.3.5.2 1-.2 1-.7 0-2.7 3.9-3.8 7.2-.1.5-.4 1-.5 1.3-.1.3-.4.9-.5 1.5-.1.5-.3 1.1-.4 1.2-.2.2-.5 1.4-.8 2.8-.7 3.9-1.1 5.5-1.3 5.5-.7 0-1.2 6.1-1.5 17.2-.1 9.5.1 13.1.9 12.6.6-.4.5 0-.2.9-.9 1.1-1 1.8-.2 2.3.6.3.8 1 .5 1.5-.3.5.6 3.9 2 7.7 1.4 3.7 2.7 7.5 2.9 8.3.6 2.6 7.6 14.7 10.6 18.4.8 1 2.4 2.7 3.4 3.7 1.1 1.1 1.7 1.9 1.3 1.9-.4 0 1.6 2.4 4.5 5.2 2.9 2.9 5.1 5.7 4.9 6.3-.1.5.1.7.4.3.4-.4 2.2.4 4 1.8l3.3 2.5-7.2 11.7c-3.9 6.4-8.1 13.5-9.1 15.7-1.1 2.2-2.4 4.3-3 4.7-.5.4-.7.8-.2.8.4 0-.1 1.7-1.2 3.9-1.1 2.1-1.7 4.1-1.4 4.5.4.3.1.6-.5.6-.7 0-1.1.3-1.1.7.3 2.1-.2 4.4-.9 3.9-.4-.2-.9.3-1 1.2-.3 3.1-.7 4.7-1.5 6-.5.6-.6 1.2-.4 1.2.3 0-.1 2.1-.9 4.6-.7 2.6-1.1 5-.8 5.5.3.5 0 .9-.7.9s-.9.3-.6.6c.3.4.2 1.6-.4 2.7-.9 1.5-.8 1.8.2 1.2.8-.6 1-.4.3.6-1.4 2.2-1.5 3.6-1.4 19.9.1 16 .3 19.5 1.3 22 .4.8.9 2.6 1.1 4 1.3 6.7 1.8 8.4 2.4 9.4.6 1 .8 1.6 1.5 5 .2.8.9 2.1 1.6 3 .7.9 1.1 1.6.7 1.6-.4 0 0 1.3.8 2.9.9 1.6 1.2 3.1.9 3.5-.4.3-.1.6.5.6.7 0 1.2.7 1.2 1.5s.5 1.5 1.1 1.5c.5 0 .8.4.5.8-.3.5.3 1.8 1.4 2.9 1 1.2 1.6 2.4 1.3 2.7-.4.3-.1.6.5.6s1.6 1.6 2.3 3.5c.7 1.9 1.9 3.5 2.6 3.5.7 0 1 .7.7 1.5-.4.8-.1 1.5.6 1.5.6 0 .8.5.5 1-.3.5-.1 1 .5 1s1.6 1.3 2.1 3c.6 1.6 1.5 3 2.1 3 .5 0 .6.4.3 1-.3.5.1 1 1 1s1.5.5 1.3 1.2c-.4 1.2 1.8 4.2 6.9 9.5C82 535 83 536.5 83 537c0 .6.5 1 1 1 .6 0 1 .7 1 1.6 0 .8.4 1.2 1 .9.5-.3 1 .1 1 .9 0 .9.7 1.6 1.6 1.6.8 0 1.2.5.9 1-.3.6.3 1.4 1.4 1.8 1.1.4 2.1 1.1 2.3 1.7.2.5.6.9 1 .8.5-.2.8.2.8.7 0 .6 1.1 2.1 2.5 3.4 1.3 1.3 2.1 2.7 1.7 3.1-.4.5-.2.6.3.2.6-.3 2.8 1 4.9 2.9 2.1 1.9 4.4 3.4 5.2 3.4.8 0 1.4.6 1.4 1.3 0 .7 1.8 2.3 4 3.7 2.2 1.4 4 2.8 4 3.2 0 .5.7.8 1.5.8s1.5.4 1.5 1c0 .5.7 1 1.5 1s1.5.4 1.5.9 1.3 1.4 3 2.1c1.6.7 2.7 1.7 2.3 2.3-.4.6.2.8 1.5.5 1.5-.4 2.3 0 2.8 1.4.3 1.2 1.2 1.7 2 1.4.8-.3 1.7.1 2 .9.4.8 1 1.2 1.5.9.5-.3.9-.2.9.3 0 .8 4.7 3.3 6.3 3.3.5 0 2 .9 3.4 2s2.9 1.8 3.3 1.5c.4-.3 1.3.2 2 1s2.1 1.5 3.1 1.5c1.1 0 1.9.4 1.9.9s1.4 1.1 3.1 1.5c2 .4 2.8 1 2.3 1.8-.5.7-.2.9.7.6.8-.3 3.2.3 5.4 1.3 2.1 1 5.4 1.9 7.2 1.9 1.8 0 3.3.5 3.3 1 0 .6.6 1 1.3.9 1.2-.2 3.2.4 7.7 2.4 1.4.5 3.6 1.2 4.9 1.4 1.4.2 3.4.9 4.5 1.5 1.2.7 3.2 1.2 4.6 1.2 1.4 0 3.3.7 4.2 1.5.9.9 3.1 1.5 5 1.5 1.8-.1 4 .4 4.8 1 .8.7 3.3 1.4 5.5 1.5 2.2.2 4.5.7 5 1.1.6.5 3 1.1 5.5 1.5 2.5.3 6 1.1 7.9 1.7 1.9.6 5.1 1.2 7.1 1.3 2 .1 4.2.5 4.9.9.6.4 1.1.1 1.1-.6 0-1 .2-1 .8-.1.8 1.3 7.8 3.1 10.6 2.7 1-.1 2.8.1 4 .5 1.8.8 14.2 2 24.6 2.5 1.9.1 4 .4 4.5.8.6.3 1.8.4 2.8.3.9-.2 1.7.1 1.7.6 0 .6.8.5 2-.1 1.4-.8 2-.8 2 0 0 .7.7.7 2.1-.1 1.2-.6 1.9-.7 1.6-.2-.9 1.5 7.4 1.5 9.1 0 .9-.6 1.3-.7.9-.1-.9 1.5 5.3 1.6 7.2.1 1.1-.9 1.3-.9.8 0-.5.8 1 1 5.3.9 3.3-.2 6.3-.6 6.7-.9.3-.4 1.2-.2 1.9.4.8.6 1.4.6 1.8 0 .3-.5 2-.7 3.6-.5 1.7.3 3 .1 3-.3 0-.5 2.6-.9 5.8-.9 9.2-.2 21.6-1.4 22.7-2.4.6-.5 3.2-.8 5.8-.6 2.6.1 4.7-.2 4.7-.6 0-.5.5-.6 1-.3.6.4 1.7.2 2.5-.5.7-.6 3.2-1.2 5.4-1.3 2.3-.1 4.1-.4 4.1-.8 0-.3 1.4-.5 3-.4 1.7.1 3-.3 3-.9 0-.6 1.7-1.1 4-1 2.2 0 4.5-.5 5.1-1.3.6-.7 2.9-1.3 5-1.3 2.2 0 3.9-.4 3.9-.9s1.6-1.2 3.6-1.6c2-.3 4.8-1.1 6.3-1.7 1.4-.7 3.5-1.3 4.6-1.4 1.1-.1 3.3-.9 4.9-1.8 1.6-.8 3.3-1.3 3.7-1.1.4.3.9-.1 1.2-.9.3-.7 2.7-1.7 5.4-2.1 2.6-.4 5.3-1 5.8-1.3.6-.4 2-.8 3.2-1 1.2-.1 3.4-.9 5-1.7 1.5-.8 3.3-1.5 4-1.5.6 0 1.3-.4 1.5-.9.2-.5 1.2-1.1 2.3-1.3 1.1-.1 2.5-1 3.2-1.8.7-.8 1.3-1.1 1.3-.7 0 .5 1.2 0 2.8-1.1 1.5-1.1 3.7-2.3 5-2.6 1.2-.4 2.2-1.2 2.2-1.7s.3-.9.8-.8c1.5.2 5.2-1.4 5.2-2.2 0-.5.7-.9 1.5-.9.9 0 1.8-.6 2.1-1.4.3-.8 1.3-1.2 2.6-.8 1.4.3 1.9.1 1.4-.6-.3-.6 1.3-2 4-3.4 2.6-1.2 4.9-2.8 5.1-3.5.3-.7 1.3-1.3 2.2-1.3.9 0 2.5-1.1 3.5-2.5s2.4-2.5 3.1-2.5c.7 0 1.5-.7 1.9-1.5.3-.8 1.1-1.5 1.7-1.5.7 0 2.4-1.3 4-2.9 1.5-1.6 3-2.7 3.3-2.4.3.3.8-.2 1.2-1.1.3-.9 1.2-1.6 2-1.6s1.4-.4 1.4-1c0-.5 1.6-2 3.5-3.2 1.9-1.3 3.5-2.9 3.5-3.6 0-.6.7-1.2 1.6-1.2.8 0 1.3-.4.9-.9-.3-.5.4-1.2 1.5-1.6 1.1-.3 2-1 2-1.4 0-.5 1.7-2.6 3.8-4.8 4.4-4.6 7.2-8.1 7.2-8.9 0-.4 1.1-1.7 2.6-3 1.4-1.3 2.1-2.4 1.7-2.4-.4 0 0-.5 1-1.1.9-.5 1.7-1.6 1.7-2.4 0-.8.9-2 2-2.8 1.1-.8 1.7-1.7 1.3-2-.3-.4-.1-.7.5-.7.7 0 1.2-.6 1.2-1.4 0-.7.7-1.9 1.5-2.6.8-.7 1.5-2 1.5-3 0-.9.8-2.4 1.8-3.3 1-.9 2.4-3.2 3.2-5.2.8-1.9 1.7-3.5 2.2-3.5.4 0 .8-.8.8-1.8s.3-2.2.8-2.6c.4-.4.7-1.1.7-1.4.1-.4.7-1.8 1.5-3.2.7-1.4 1.2-2.5 1.1-2.5-.1 0 .3-1.4.9-3 .7-1.7 1.3-3.8 1.5-4.8.2-.9.7-2.2 1.1-2.8.4-.7.8-2.4 1-4 .5-4 .8-5.3 1.5-5.9 2.2-1.7 3.4-39.1 1.6-48.2-.4-2.1-.8-4.3-.9-5-.2-.7-.6-1.5-.9-1.8-.4-.3-.9-2.1-1.2-4-.3-1.9-.9-4.6-1.5-6-.5-1.4-1-2.8-1.1-3.3 0-.4-.8-2.3-1.6-4.3s-1.5-4.1-1.5-4.6-.7-2-1.6-3.3c-.9-1.4-1.3-2.5-.9-2.5.5 0 0-.9-1-2-1.1-1.2-2-2.7-2.1-3.5-.1-.8-1.2-2.8-2.4-4.5-1.2-1.6-1.8-3-1.4-3 .4 0 0-.6-.9-1.3-.9-.6-1.7-1.8-1.9-2.6-.2-.8-1.1-2.4-2-3.5-1-1.2-1.7-2.4-1.7-2.9 0-.4-1.3-1.9-2.7-3.2-1.5-1.4-2.4-2.5-2-2.5.4 0-.6-1.2-2.1-2.7-3.5-3.4-3.6-4.4-.9-6.3 4.2-2.9 7.9-6.6 11.4-11.5 2-2.8 4-5.2 4.4-5.3.5-.2.8-1 .8-1.8s.5-1.4 1-1.4c.6 0 1-.6 1-1.4 0-.8.5-1.6 1.2-1.8.6-.2 1.3-1.5 1.5-2.9.2-1.3.8-2.6 1.3-2.7.6-.2 1-1 1-1.8s.6-1.4 1.3-1.4c.9 0 .9-.2-.1-.9-1.1-.7-1.1-.9.2-1.4.9-.4 1.6-1.8 1.6-3.2 0-1.5.4-2.3 1-2 .5.3 1.2-.7 1.5-2.2.4-1.5 1.1-3.8 1.7-5 .6-1.2 1.1-4.2 1.2-6.7 0-2.5.4-4.6.7-4.6.3 0 .6-.7.6-1.5s-.5-1.5-1-1.5c-.6 0-.6-.5 0-1.3 1.5-1.8.5-27.9-1.1-30.5-.4-.7-.2-1.2.6-1.2s.6-.5-.4-1.1c-1-.5-1.8-2-1.8-3.2 0-1.3-.4-2.7-.9-3.2-.6-.6-1.2-2.3-1.5-3.9-.3-1.5-1.2-3.9-2.1-5.2-.8-1.3-1.5-3-1.5-3.7 0-.8-.7-2-1.5-2.7-.8-.7-1.3-1.5-1-1.9.2-.4-.8-2.1-2.3-3.8-1.5-1.7-3.6-4.3-4.7-5.8-3.6-4.8-13.7-14.6-17.9-17.3-2.2-1.5-4.7-3.3-5.4-3.9-.7-.7-2-1.3-2.8-1.3-.8 0-1.4-.5-1.4-1 0-.6-.6-1-1.4-1-.8 0-2.2-.8-3.2-1.7-.9-1-2.4-1.8-3.3-2-.8-.1-1.7-.7-1.9-1.2-.2-.6-1.4-1.1-2.6-1.1-1.2 0-2.8-.6-3.4-1.3-.7-.6-1.7-1.3-2.2-1.3-.6-.1-1.1-.2-1.2-.4-.2-.1-1.1-.3-2.1-.5s-2.6-.7-3.5-1.1c-2-.9-29.2-1.3-29.2-.5 0 .3-1.8.5-4.1.5-3.5-.2-6 .4-13.4 3.2-1.1.4-2.8.8-3.9.9-2.1.3-14.9 6.7-15.4 7.7-.2.5-1.2.8-2.2.8-1 0-2 .4-2.2.9-.1.5-2.5 2.3-5.2 4-2.8 1.7-4.6 3.1-4.1 3.1s-.6 1.1-2.5 2.5-3.1 2.5-2.8 2.5c.3 0-1.9 2.5-4.9 5.5-3 3-5.1 5.5-4.8 5.5.4 0-.7 1.6-2.4 3.5-1.7 2-3.1 4.2-3.1 5 0 .8-.4 1.5-.8 1.5-1 0-9.2 17.1-9.2 19.2 0 .8-.3 1.8-.7 2.2-.5.4-.8 1.1-.9 1.4 0 .4-.3 1.4-.7 2.2-.3.8-1 2.8-1.5 4.5-.7 2.4-1.4 3-3.8 3-3.2 0-5.8-1.9-5.9-4.4 0-.9.5-3.1 1.2-5 .7-1.8 1.3-4.8 1.3-6.5 0-1.8.6-4.1 1.4-5.1.8-1.1 1.2-2.5.9-3.1-.2-.7.1-3.2.8-5.5 1.5-5.4 1.8-6.8 2.1-9.7.1-1.2.5-2.2.9-2.2s.5-1 .1-2.2c-.3-1.1-.1-1.9.4-1.6.5.4 1-.6 1.1-2.1.1-1.5.5-4 .8-5.6.4-1.7.7-4 .8-5.3.1-1.2.4-2.2.7-2.2.3 0 .7-1 .8-2.3.2-2.5.9-6.1 1.2-6.5.2-.1.4-.7.5-1.2.1-.6.4-1.1.5-1.3.1-.1.3-1.6.5-3.2.1-1.7.3-3 .4-3 .2 0 .4-.7.6-1.5.2-.8.7-2.6 1-4 .3-1.4.8-3.6 1.1-4.9.3-1.4.8-2.9 1.1-3.5.4-.6.8-2.6 1-4.6.4-4.7.9-7.1 1.7-9.3 1.4-4 1.8-5.4 2.2-8.6.3-1.9 1-4.1 1.6-4.8.8-1 .7-1.3-.3-1.3s-1-.3-.1-1.2c.7-.7 1.2-2.5 1.2-4 0-2.8 0-2.8 6.8-2.8 8.3 0 10.2-.1 10.2-1 0-.6.8-.8 5-1.2 1.1-.1 2-.8 2-1.5s.5-1.3 1-1.3c1.5 0 10-9.1 10-10.7 0-.7.4-1.3 1-1.3.5 0 .7-.7.4-1.5-.4-.8-.2-1.5.3-1.5 1.3 0 1.9-6.8 1.3-15.3-.2-2.6-.7-4.7-1.1-4.7-.4 0-1.1-1-1.5-2.3-.7-2.3-1.4-3.1-6.4-8.2-4.4-4.5-5.7-5.5-7.7-5.8-1-.1-2.5-.7-3.3-1.2-.8-.5-2.6-.9-4-1-1.4-.1-3.1-.4-3.7-.8-.6-.4-1.5-.3-1.8.3-.5.8-1.1.8-2 0-.9-.8-1.5-.8-2 0-.3.6-1.1.7-1.7.4-.6-.4-1.3-.1-1.7.5-.4.6-2.1 1.4-3.7 1.7-1.6.3-3 .9-3.2 1.5-.2.5-1 .9-1.8.9s-1.4.6-1.4 1.3c0 .7-1 1.7-2.1 2.2-1.2.6-2.1 1.4-2 1.8.1.5-.6 1.6-1.6 2.5-2.5 2.4-4.5 6.1-3.8 7.2.4.6.1 1-.5 1-1.3 0-1.2 15.8.2 16.6.4.3.6.9.3 1.4-.7 1.2 2.2 7 3.5 7 .6 0 .8 1 .6 2.2-.3 1.3-.5 2.6-.5 3-.1.5-.6.8-1.1.8-.6 0-2.4 1.2-4.1 2.7-1.7 1.6-3.4 2.8-3.8 2.8-.4 0-1.5.7-2.4 1.5-3.1 2.8-4.6 4-5.2 4-.3 0-1.9 1.4-3.5 3-1.7 1.7-3 2.8-3 2.5 0-.8-12.1 8.4-13.8 10.4-.7.9-1.5 1.5-1.7 1.3-.3-.1-.6-.2-.7-.1-3.3 1-4.3.3-3.9-2.4 0-.4-.6-.7-1.4-.7-.8 0-1.5-.3-1.6-.8-.2-2.4-.9-4.1-3-7.7-1.3-2.1-2.4-4.6-2.6-5.4-.1-.9-.7-1.7-1.2-1.9-.6-.2-1.1-1.2-1.1-2.3 0-1-.5-1.9-1.1-1.9-.5 0-.7-.5-.4-1 .3-.6.2-1-.4-1-.5 0-1.3-.9-1.6-2.1-.4-1.1-2.2-4.7-4-8-1.9-3.2-3.1-5.9-2.7-5.9.4 0 .3-.4-.3-.8-.5-.4-1.9-2.5-3-4.7s-2.3-4.2-2.6-4.5c-.4-.3-.9-1.4-1.1-2.5-.1-1.1-.5-2.2-.9-2.5-.3-.3-1.3-2.2-2.2-4.2-1-2-2.2-4-2.7-4.3-.6-.4-.8-1.1-.5-1.6.4-.5.1-.9-.4-.9-.6 0-1.1-.7-1.1-1.5s-.4-1.5-1-1.5c-.5 0-.7-.7-.4-1.5.4-.9 0-1.5-1-1.5s-1.6-.9-1.6-2.5c0-1.4-.4-2.5-.8-2.5-.7 0-2.9-4.8-2.8-6.2.1-.4-.8-1.4-1.9-2.2-1.1-.9-1.6-1.6-1.1-1.6s.4-.6-.2-1.3c-1.6-1.8-.8-5 1.2-5.3 1-.1 2.6-1 3.5-1.8 1-.9 2.2-1.3 2.7-.9.5.5.6.5.3 0-.3-.4 1.1-2.5 3.3-4.7 2.1-2.3 3.8-4.7 3.8-5.5 0-.8.4-1.5 1-1.5.5 0 .7-.7.4-1.5-.4-.8-.2-1.5.4-1.5.6 0 .9-.8.7-1.8-.1-.9.2-2.5.7-3.5.6-1.2.5-1.7-.4-1.7-1 0-1-.2.1-.9.9-.6 1-1 .2-1.6-.9-.5-.9-1-.1-2 .8-.9.8-1.5 0-2-.6-.3-.8-1-.5-1.5.3-.4-.2-2.1-1-3.6-.8-1.6-1.5-3.5-1.5-4.2 0-.7-.7-1.5-1.5-1.8-.8-.4-1.3-1-1-1.4.7-1.1-4.5-6-6.2-6-.7 0-1.3-.7-1.3-1.5s-.9-1.5-1.9-1.5c-1.1 0-2.1-.5-2.3-1.2-.7-1.9-18.6-2.3-22-.4z"/></svg>